<svg width="35" height="35" viewBox="0 0 35 35" fill="none" xmlns="http://www.w3.org/2000/svg">
<path d="M2.08337 2.08334H4.09704C4.47632 2.08334 4.66596 2.08334 4.81857 2.15309C4.95306 2.21455 5.06703 2.3134 5.1469 2.43784C5.23752 2.57906 5.26434 2.76679 5.31798 3.14226L6.04766 8.25001M6.04766 8.25001L7.66933 20.1693C7.87512 21.6818 7.97801 22.4381 8.33961 23.0074C8.65824 23.509 9.11504 23.9079 9.65505 24.156C10.2679 24.4375 11.0311 24.4375 12.5576 24.4375H25.751C27.2041 24.4375 27.9307 24.4375 28.5244 24.1761C29.048 23.9455 29.4971 23.5739 29.8215 23.1028C30.1894 22.5684 30.3253 21.8547 30.5972 20.4273L32.6378 9.71412C32.7335 9.21171 32.7814 8.96051 32.712 8.76416C32.6512 8.59191 32.5312 8.44686 32.3733 8.35487C32.1934 8.25001 31.9377 8.25001 31.4263 8.25001H6.04766ZM14.4167 31.375C14.4167 32.2265 13.7265 32.9167 12.875 32.9167C12.0236 32.9167 11.3334 32.2265 11.3334 31.375C11.3334 30.5236 12.0236 29.8333 12.875 29.8333C13.7265 29.8333 14.4167 30.5236 14.4167 31.375ZM26.75 31.375C26.75 32.2265 26.0598 32.9167 25.2084 32.9167C24.3569 32.9167 23.6667 32.2265 23.6667 31.375C23.6667 30.5236 24.3569 29.8333 25.2084 29.8333C26.0598 29.8333 26.75 30.5236 26.75 31.375Z" stroke="black" stroke-width="3.2" stroke-linecap="round" stroke-linejoin="round"/>
</svg>
