<svg width="31" height="32" viewBox="0 0 31 32" fill="none" xmlns="http://www.w3.org/2000/svg">
<path d="M20.125 30.25V21.7C20.125 20.8133 20.125 20.3699 19.957 20.0312C19.8092 19.7333 19.5733 19.491 19.2832 19.3392C18.9535 19.1667 18.5217 19.1667 17.6583 19.1667H13.3417C12.4783 19.1667 12.0465 19.1667 11.7168 19.3392C11.4267 19.491 11.1908 19.7333 11.043 20.0312C10.875 20.3699 10.875 20.8133 10.875 21.7V30.25M1.625 8.08333C1.625 10.7067 3.69568 12.8333 6.25 12.8333C8.80432 12.8333 10.875 10.7067 10.875 8.08333C10.875 10.7067 12.9457 12.8333 15.5 12.8333C18.0543 12.8333 20.125 10.7067 20.125 8.08333C20.125 10.7067 22.1957 12.8333 24.75 12.8333C27.3043 12.8333 29.375 10.7067 29.375 8.08333M6.55833 30.25H24.4417C26.1685 30.25 27.0319 30.25 27.6915 29.9049C28.2716 29.6013 28.7433 29.1168 29.0389 28.521C29.375 27.8436 29.375 26.9568 29.375 25.1833V6.81667C29.375 5.04317 29.375 4.15642 29.0389 3.47903C28.7433 2.88318 28.2716 2.39875 27.6915 2.09515C27.0319 1.75 26.1685 1.75 24.4417 1.75H6.55833C4.8315 1.75 3.96809 1.75 3.30853 2.09515C2.72836 2.39875 2.25667 2.88318 1.96106 3.47903C1.625 4.15642 1.625 5.04317 1.625 6.81667V25.1833C1.625 26.9568 1.625 27.8436 1.96106 28.521C2.25667 29.1168 2.72836 29.6013 3.30853 29.9049C3.96809 30.25 4.8315 30.25 6.55833 30.25Z" stroke="black" stroke-width="3.2" stroke-linecap="round" stroke-linejoin="round"/>
</svg>
